<?xml version="1.0" standalone="no"?>
<!DOCTYPE svg PUBLIC "-//W3C//DTD SVG 20010904//EN"
 "http://www.w3.org/TR/2001/REC-SVG-20010904/DTD/svg10.dtd">
<svg version="1.0" xmlns="http://www.w3.org/2000/svg"
 width="477.000000pt" height="60.000000pt" viewBox="0 0 477.000000 60.000000"
 preserveAspectRatio="xMidYMid meet">
<metadata>
Created by potrace 1.16, written by Peter Selinger 2001-2019
</metadata>
<g transform="translate(0.000000,60.000000) scale(0.100000,-0.100000)"
fill="#000000" stroke="none">
<path d="M20 301 l0 -282 149 3 c133 3 153 5 177 24 51 38 69 71 68 128 0 61
-20 98 -62 117 l-28 12 34 31 c43 40 54 103 26 161 -28 59 -80 77 -236 83
l-128 5 0 -282z m243 188 c25 -11 47 -47 47 -75 0 -26 -30 -62 -62 -73 -17 -6
-55 -11 -84 -11 l-54 0 0 85 0 85 65 0 c35 0 75 -5 88 -11z m38 -258 c33 -33
35 -50 15 -90 -20 -38 -55 -51 -136 -51 l-70 0 0 85 0 85 81 0 c76 0 82 -2
110 -29z"/>
<path d="M510 300 l0 -280 165 0 165 0 0 35 0 35 -120 0 -120 0 0 245 0 245
-45 0 -45 0 0 -280z"/>
<path d="M1030 571 c-117 -36 -190 -142 -190 -276 0 -178 121 -294 295 -283
107 7 180 53 229 143 31 58 31 222 0 280 -51 94 -138 145 -244 144 -36 0 -76
-4 -90 -8z m166 -90 c144 -66 137 -320 -11 -376 -88 -34 -180 -2 -227 80 -35
60 -33 164 4 226 48 81 145 110 234 70z"/>
<path d="M1629 567 c-102 -38 -160 -106 -178 -210 -18 -104 7 -205 68 -270 86
-94 270 -102 372 -18 34 29 34 29 15 50 -25 27 -49 27 -87 -2 -25 -18 -44 -22
-98 -22 -59 0 -72 4 -105 29 -55 42 -79 102 -74 186 8 155 135 231 277 165 51
-24 55 -24 72 -9 31 28 23 51 -27 80 -37 22 -62 28 -123 31 -48 2 -90 -2 -112
-10z"/>
<path d="M2000 300 l0 -280 45 0 45 0 0 121 0 120 28 -3 c22 -2 52 -30 131
-120 l102 -118 50 0 c27 0 49 3 49 8 0 4 -52 69 -116 145 l-115 138 110 125
c61 68 111 129 111 134 0 11 -66 12 -92 2 -9 -4 -42 -36 -73 -72 -111 -126
-147 -160 -166 -160 -18 0 -19 8 -19 120 l0 120 -45 0 -45 0 0 -280z"/>
<path d="M2456 572 c-3 -5 40 -82 95 -172 l99 -164 0 -108 0 -108 45 0 45 0 0
106 0 106 100 163 c55 89 100 168 100 174 0 12 -57 15 -84 5 -8 -3 -48 -62
-87 -130 l-72 -124 -64 112 c-36 62 -74 121 -85 131 -21 17 -83 24 -92 9z"/>
<path d="M3140 301 l0 -281 138 0 c150 0 191 8 241 44 72 53 103 123 103 231
0 108 -31 178 -103 231 -49 36 -90 45 -241 51 l-138 6 0 -282z m277 184 c77
-32 113 -93 113 -190 0 -139 -72 -205 -225 -205 l-75 0 0 205 0 205 75 0 c45
0 90 -6 112 -15z"/>
<path d="M3870 571 c-117 -36 -190 -142 -190 -276 0 -178 121 -294 295 -283
107 7 180 53 229 143 31 58 31 222 0 280 -51 94 -138 145 -244 144 -36 0 -76
-4 -90 -8z m166 -90 c144 -66 137 -320 -11 -376 -88 -34 -180 -2 -227 80 -35
60 -33 164 4 226 48 81 145 110 234 70z"/>
<path d="M4467 566 c-117 -42 -176 -133 -177 -272 0 -121 46 -210 133 -257 34
-18 58 -22 132 -22 96 0 147 17 189 64 18 20 18 22 1 41 -23 26 -34 25 -91 -5
-87 -46 -189 -23 -240 54 -20 31 -28 57 -31 109 -4 59 -2 73 24 121 51 98 158
129 259 75 l48 -26 24 27 c28 34 19 48 -53 81 -58 28 -156 32 -218 10z"/>
</g>
</svg>
